<svg id="Capa_1" fill = "#fff" enable-background="new 0 0 512 512" height="512" viewBox="0 0 512 512" width="512" xmlns="http://www.w3.org/2000/svg"><path d="m483.472 442.814c-1.794-3.728-6.273-5.295-9.998-3.499-3.727 1.794-5.294 6.27-3.499 9.997 6.499 13.498 9.795 28.001 9.795 43.106v2.548c0 1.133-.922 2.054-2.054 2.054h-306.656c-1.133 0-2.054-.921-2.054-2.054v-2.548c0-54.867 44.637-99.505 99.505-99.505h111.755c27.689 0 53.404 11.099 72.407 31.253 2.839 3.01 7.579 3.149 10.588.311s3.149-7.578.311-10.588c-20.43-21.666-47.602-34.232-77.069-35.788v-37.649c2.462-2.356 4.8-4.84 6.969-7.472 2.654 1.312 5.612 2.113 8.873 2.353.537.039 1.074.059 1.61.059 8.166 0 16.118-4.571 22.551-13.011 5.701-7.481 9.505-17.362 10.172-26.431 1.198-16.261-7.949-28.067-23.658-31.272v-38.155c0-5.893 1.439-11.942 4.163-17.493 3.546-7.228 5.344-14.995 5.344-23.087.001-24.196-16.323-45.152-39.697-50.961-4.593-1.14-9.43 1.118-11.497 5.381-4.723 9.758-14.384 15.819-25.213 15.819h-55.463c-.176 0-.348.012-.524.013v-29.975c0-35.659-29.011-64.67-64.67-64.67h-47.089c-35.659 0-64.67 29.011-64.67 64.67v44.263c-16.396 2.862-26.005 14.845-24.779 31.489 1.343 18.238 14.316 37.632 30.457 39.322 4.411 11.705 11.184 22.148 19.719 30.804v10.41h-10.986c-61.131 0-110.864 49.733-110.864 110.864v16.438c0 9.215 7.496 16.711 16.711 16.711h140.983c-13.171 18.646-20.919 41.383-20.919 65.896v2.548c0 9.393 7.641 17.034 17.034 17.034h306.655c9.393 0 17.034-7.641 17.034-17.034v-2.548c0-17.372-3.794-34.062-11.277-49.603zm-249.288-129.513c-3.952-5.186-6.691-12.255-7.147-18.451-.59-8.011 2.73-13.062 9.871-15.077.205 14.561 4.049 28.254 10.678 40.207-.679.21-1.42.352-2.255.414-3.401.242-7.57-2.401-11.147-7.093zm137.338 64.632h-94.268v-26.689c13.161 8.238 28.697 13.02 45.336 13.02h4.716c16.166 0 31.298-4.503 44.216-12.314zm50.217-83.083c-.456 6.195-3.195 13.265-7.147 18.45-3.575 4.691-7.754 7.344-11.147 7.092-.467-.034-.881-.097-1.273-.171 6.656-11.911 10.543-25.561 10.808-40.086 6.365 2.217 9.317 7.137 8.759 14.715zm-75.618-123.689c14.954 0 28.923-7.951 36.667-20.564 14.75 5.266 24.761 19.308 24.76 35.345 0 5.785-1.282 11.333-3.813 16.489-3.726 7.593-5.695 15.924-5.695 24.092v52.029c0 39.002-31.73 70.733-70.733 70.733h-4.716c-39.003 0-70.733-31.731-70.733-70.733v-68.589c0-21.394 17.406-38.801 38.8-38.802zm-167.746-94.631h47.089c20.962 0 38.92 13.054 46.208 31.454-6.456-4.258-14.178-6.745-22.473-6.745h-94.559c-8.295 0-16.017 2.487-22.473 6.745 7.288-18.401 25.246-31.454 46.208-31.454zm5.892 220.035c.503.102 1.005.152 1.499.152 3.488 0 6.61-2.449 7.332-6 .824-4.054-1.794-8.008-5.848-8.832-26.342-5.354-47.571-24.68-55.401-50.435-1.105-3.635-4.757-5.865-8.497-5.192-.435.079-.826.13-1.194.157-7.772.599-17.355-12.796-18.294-25.543-.722-9.804 4.404-15.179 15.233-15.977.528-.039 1.045-.04 1.58-.003 2.068.147 4.109-.58 5.627-1.996 1.518-1.417 2.38-3.399 2.38-5.476v-11.177-24.071c0-14.312 11.644-25.955 25.955-25.955h94.558c14.312 0 25.955 11.644 25.955 25.955v16.296c-10.937 3.3-20.41 9.993-27.199 18.854.004-.127.019-.251.019-.379 0-6.115-4.957-11.073-11.073-11.073-6.115 0-11.073 4.957-11.073 11.073 0 6.115 4.957 11.073 11.073 11.073 1.913 0 3.713-.485 5.283-1.34-3.4 7.05-5.307 14.95-5.307 23.286v54.507c-16.393 2.864-26.005 14.838-24.78 31.481.394 5.347 1.884 10.973 4.204 16.226h-38.083c-13.309 0-24.138-10.828-24.138-24.138v-3.762c9.064 5.843 19.259 10.068 30.189 12.289zm1.941 114.977h-152.246c-.954 0-1.731-.777-1.731-1.731v-16.438c0-52.871 43.013-95.884 95.884-95.884h12.147c4.239 17.018 19.646 29.668 37.957 29.668h45.993c.736 0 1.477-.029 2.216-.07 5.561 5.413 11.908 8.305 18.392 8.305.536 0 1.073-.02 1.611-.059 3.568-.263 6.819-1.196 9.676-2.758 1.936 2.377 3.992 4.652 6.167 6.808v38.722c-29.16 1.573-55.454 14.107-74.824 33.548-.405-.068-.818-.111-1.242-.111z"/><circle cx="166.937" cy="176.944" r="11.073"/><path d="m226.229 229.635c2.42-3.355 1.66-8.037-1.695-10.456-3.356-2.42-8.037-1.661-10.456 1.695-2.816 3.905-7.361 6.237-12.159 6.237s-9.343-2.331-12.158-6.237c-2.419-3.356-7.099-4.114-10.456-1.696-3.356 2.419-4.115 7.1-1.696 10.456 5.623 7.8 14.711 12.457 24.31 12.457 9.599.001 18.686-4.655 24.31-12.456z"/><path d="m303.65 120.286c-.596 3.981 1.08 7.891 4.373 10.205 1.823 1.28 3.936 1.929 6.062 1.929 1.716 0 3.438-.423 5.02-1.276l25.167-13.576c7.722 1.609 16.207 2.424 25.272 2.424 21.362 0 39.424-4.596 52.232-13.291 15.162-10.292 23.176-26.313 23.176-46.328 0-37.804-28.19-60.373-75.409-60.373-19.643 0-36.693 4.069-49.309 11.767-3.531 2.154-4.647 6.764-2.493 10.295 2.155 3.532 6.764 4.647 10.295 2.493 10.266-6.264 24.619-9.574 41.507-9.574 22.568 0 60.429 5.897 60.429 45.391 0 38.84-37.861 44.639-60.429 44.639-9.014 0-17.298-.891-24.62-2.647-1.793-.431-3.682-.183-5.303.691l-19.845 10.706 2.621-17.471c.356-2.376-.449-4.778-2.164-6.46-7.377-7.23-11.117-17.141-11.117-29.458 0-4.481.495-8.7 1.472-12.54 1.019-4.009-1.403-8.085-5.413-9.105-4.003-1.02-8.086 1.403-9.105 5.413-1.283 5.046-1.934 10.508-1.934 16.233 0 14.99 4.339 27.517 12.907 37.298z"/></svg>